<?xml version="1.0"?>
<svg version="1.1" xmlns="http://www.w3.org/2000/svg" width="400px" height="200px" style="border: dashed 2px #aaa"><path fill="#00090f" d="M88.12,119.2l0-2.72l2.4-0.96l0-15.04l-2.4-0.96l0-2.72l7.36-0.16l2.432,0c5.248,0,8.32,2.176,8.32,6.528c0,3.008-1.44,4.96-3.616,6.048c0.352,0.416,0.832,1.024,1.344,2.08l2.144,4.384l2.176,0.8l0,2.72l-5.92,0l-2.688-5.92c-1.088-2.432-1.376-2.944-3.072-2.944l-1.12,0l0,5.184l2.304,0.96l0,2.72l-9.664,0z M95.48,106.976l1.824,0c2.528,0,4-1.216,4-3.36c0-1.824-1.216-3.136-3.2-3.136l-2.624,0l0,6.496z M127.56032,111.616l-10.624,0c0.192,2.56,1.664,4.064,3.872,4.064c2.656,0,5.376-1.504,5.376-1.504l1.376,2.656s-3.2,2.688-7.296,2.688c-5.504,0-8.32-3.2-8.32-8.64c0-5.6,3.168-9.28,8.544-9.28c4.768,0,7.264,2.944,7.264,7.52c0,1.216-0.192,2.4-0.192,2.496z M117.00032,108.64l5.792,0c0-1.824-0.768-3.2-2.624-3.2c-1.792,0-2.912,1.312-3.168,3.2z M145.81664,113.984l1.6,2.816c-0.8,0.704-3.296,2.72-6.88,2.72c-5.28,0-8.32-3.264-8.32-8.704c0-5.696,3.2-9.216,8.8-9.216c2.752,0,5.6,1.12,5.6,1.12l-0.16,5.248l-2.88,0l-0.448-2.272s-0.928-0.256-2.208-0.256c-2.304,0-3.744,1.536-3.744,4.736c0,3.488,1.344,5.504,4,5.504c2.24,0,3.648-1.12,4.64-1.696z M153.22496,96.64c0-1.824,1.312-2.88,2.752-2.88c1.664,0,2.688,0.864,2.688,2.88c0,1.888-1.376,2.912-2.688,2.912c-1.728,0-2.752-1.024-2.752-2.912z M158.60096,115.84l2.24,0.8l0,2.56l-9.6,0l0-2.56l2.56-0.8l0-10.4l-2.56-0.8l0-2.56l7.36-0.16l0,13.92z M164.66528,102.08l6.816-0.16l0.288,1.792s2.176-2.112,4.736-2.112c4.448,0,6.656,3.296,6.656,8.48c0,5.92-2.816,9.44-8.416,9.44c-0.928,0-1.888-0.128-2.72-0.32l0,4.064l3.04,0.736l0,2.56l-10.336,0l0-2.56l2.496-0.736l0-17.824l-2.56-0.8l0-2.56z M172.02528,107.2l0,8.16c0.512,0.224,1.28,0.48,2.496,0.48c2.752,0,3.68-1.92,3.68-5.184c0-3.232-0.864-5.216-3.2-5.216c-2.08,0-2.976,1.76-2.976,1.76z M203.4016,111.616l-10.624,0c0.192,2.56,1.664,4.064,3.872,4.064c2.656,0,5.376-1.504,5.376-1.504l1.376,2.656s-3.2,2.688-7.296,2.688c-5.504,0-8.32-3.2-8.32-8.64c0-5.6,3.168-9.28,8.544-9.28c4.768,0,7.264,2.944,7.264,7.52c0,1.216-0.192,2.4-0.192,2.496z M192.8416,108.64l5.792,0c0-1.824-0.768-3.2-2.624-3.2c-1.792,0-2.912,1.312-3.168,3.2z M218.12224,119.2l0-2.72l2.4-0.96l0-15.04l-2.4-0.96l0-2.72l7.36-0.16l8.96,0l0,6.08l-2.976,0l-0.8-2.24l-5.184,0l0,5.6l6.624,0l0,3.52l-6.624,0l0,5.92l2.944,0.96l0,2.72l-10.304,0z M240.57056,96.64c0-1.824,1.312-2.88,2.752-2.88c1.664,0,2.688,0.864,2.688,2.88c0,1.888-1.376,2.912-2.688,2.912c-1.728,0-2.752-1.024-2.752-2.912z M245.94656,115.84l2.24,0.8l0,2.56l-9.6,0l0-2.56l2.56-0.8l0-10.4l-2.56-0.8l0-2.56l7.36-0.16l0,13.92z M259.27488,101.92l0.224,2.208s3.04-2.464,5.888-2.464c3.104,0,4.864,2.208,4.864,5.696l0,8.48l2.24,0.8l0,2.56l-8.8,0l0-2.56l1.76-0.8l0-7.616c0-1.472-0.832-2.56-2.176-2.56c-1.984,0-3.424,1.824-3.424,1.824l0,8.352l1.76,0.8l0,2.56l-9.12,0l0-2.56l2.56-0.8l0-10.4l-2.56-0.8l0-2.56z M288.4752,119.2l-0.288-1.696c-0.448,0.448-2.08,2.016-4.832,2.016c-4.48,0-6.56-3.264-6.56-8.544c0-6.016,2.88-9.376,8.736-9.376c0.768,0,1.696,0.16,2.4,0.32l0-4.064l-2.56-0.64l0-2.56l7.36-0.256l0,21.376l2.56,0.64l0,2.56z M287.9312,113.856l0-7.936c-0.608-0.288-1.568-0.48-2.496-0.48c-2.72,0-3.68,2.08-3.68,5.28c0,3.232,0.896,4.96,3.072,4.96c2.048,0,3.104-1.824,3.104-1.824z M314.89152,111.616l-10.624,0c0.192,2.56,1.664,4.064,3.872,4.064c2.656,0,5.376-1.504,5.376-1.504l1.376,2.656s-3.2,2.688-7.296,2.688c-5.504,0-8.32-3.2-8.32-8.64c0-5.6,3.168-9.28,8.544-9.28c4.768,0,7.264,2.944,7.264,7.52c0,1.216-0.192,2.4-0.192,2.496z M304.33152,108.64l5.792,0c0-1.824-0.768-3.2-2.624-3.2c-1.792,0-2.912,1.312-3.168,3.2z M326.26784,101.92l0.288,2.208s2.304-2.528,4.448-2.528c1.76,0,2.976,0.576,2.976,0.576l-0.256,6.144l-2.88,0l-0.48-2.72c-1.856,0-3.456,1.792-3.456,1.792l0,8.448l3.2,0.8l0,2.56l-10.56,0l0-2.56l2.56-0.8l0-10.4l-2.56-0.8l0-2.56z"/><path fill="#" d=""/></svg>
